<?xml version="1.0" encoding="utf-8"?>
<!-- Generator: Adobe Illustrator 19.0.0, SVG Export Plug-In . SVG Version: 6.00 Build 0)  -->
<svg version="1.1" id="Layer_1" xmlns="http://www.w3.org/2000/svg" xmlns:xlink="http://www.w3.org/1999/xlink" x="0px" y="0px"
	 viewBox="0 0 96 96" style="enable-background:new 0 0 96 96;" xml:space="preserve">
<style type="text/css">
	.st0{fill:#333333;}
</style>
<g id="XMLID_3_">
	<path id="XMLID_5_" class="st0" d="M74.5,64.8l-0.3-0.7c-0.9-2.2-12.4-5.6-13.3-5.6l-0.8,0.1c-1.6,0.3-3.3,1.8-6.9,5
		c-4.1-1.9-9.6-6.9-12.3-9.9c-2.8-3.2-6.4-8.6-7.7-12.6c4.1-3.6,5.8-5.2,5.9-7c0.1-0.9-1.9-12.7-4-13.9l-0.6-0.4
		c-1.3-0.8-3.3-2.1-5.5-1.7c-0.5,0.1-1.1,0.3-1.5,0.6c-1.5,0.9-5.1,3.5-6.8,6.8c-1,2.1-1.5,20.8,12.5,36.6
		c13.9,15.7,31,16.3,33.5,15.8l0.1,0l0.2-0.1c3.5-1.2,6.4-4.5,7.5-5.9C76.7,69.4,75.2,66.4,74.5,64.8z"/>
</g>
</svg>
